<svg version="1.1" viewBox="0.0 0.0 960.0 720.0" fill="none" stroke="none" stroke-linecap="square" stroke-miterlimit="10" xmlns:xlink="http://www.w3.org/1999/xlink" xmlns="http://www.w3.org/2000/svg"><clipPath id="p.0"><path d="m0 0l960.0 0l0 720.0l-960.0 0l0 -720.0z" clip-rule="nonzero"/></clipPath><g clip-path="url(#p.0)"><path fill="#000000" fill-opacity="0.0" d="m0 0l960.0 0l0 720.0l-960.0 0z" fill-rule="evenodd"/><path fill="#000000" fill-opacity="0.0" d="m395.65616 411.9496l-267.33856 0" fill-rule="evenodd"/><path stroke="#000000" stroke-width="1.0" stroke-linejoin="round" stroke-linecap="butt" stroke-dasharray="4.0,3.0" d="m395.65616 411.9496l-267.33856 0" fill-rule="evenodd"/><path fill="#000000" fill-opacity="0.0" d="m395.65616 411.9496l0 237.07086" fill-rule="evenodd"/><path stroke="#000000" stroke-width="1.0" stroke-linejoin="round" stroke-linecap="butt" stroke-dasharray="4.0,3.0" d="m395.65616 411.9496l0 237.07086" fill-rule="evenodd"/><path fill="#cfe2f3" d="m386.39633 411.9496l0 0c0 -5.1140747 4.145752 -9.259857 9.259827 -9.259857l0 0c2.4558716 0 4.811157 0.97561646 6.547699 2.7121582c1.7365723 1.7365723 2.7121582 4.0918274 2.7121582 6.547699l0 0c0 5.1140747 -4.1457825 9.259857 -9.259857 9.259857l0 0c-5.1140747 0 -9.259827 -4.1457825 -9.259827 -9.259857z" fill-rule="evenodd"/><path stroke="#000000" stroke-width="1.0" stroke-linejoin="round" stroke-linecap="butt" d="m386.39633 411.9496l0 0c0 -5.1140747 4.145752 -9.259857 9.259827 -9.259857l0 0c2.4558716 0 4.811157 0.97561646 6.547699 2.7121582c1.7365723 1.7365723 2.7121582 4.0918274 2.7121582 6.547699l0 0c0 5.1140747 -4.1457825 9.259857 -9.259857 9.259857l0 0c-5.1140747 0 -9.259827 -4.1457825 -9.259827 -9.259857z" fill-rule="evenodd"/><path fill="#000000" fill-opacity="0.0" d="m395.67715 411.9496l111.968506 0" fill-rule="evenodd"/><path stroke="#000000" stroke-width="1.0" stroke-linejoin="round" stroke-linecap="butt" d="m395.67715 411.9496l105.968506 0" fill-rule="evenodd"/><path fill="#000000" stroke="#000000" stroke-width="1.0" stroke-linecap="butt" d="m501.64566 413.60132l4.5381165 -1.6517334l-4.5381165 -1.6517334z" fill-rule="evenodd"/><path fill="#000000" fill-opacity="0.0" d="m425.46478 343.82416l173.35431 0l0 76.12598l-173.35431 0z" fill-rule="evenodd"/><path fill="#000000" d="m448.05853 391.61478l-2.796875 0l-10.703125 -29.0l5.59375 0l6.625 19.328125l6.984375 -19.328125l5.46875 0l-11.171875 29.0z" fill-rule="nonzero"/><path fill="#000000" d="m460.2968 396.11478q0 -3.90625 1.90625 -6.59375q1.921875 -2.703125 5.109375 -2.703125q6.640625 0 6.640625 9.703125q0 4.546875 -1.796875 7.265625q-1.796875 2.703125 -5.03125 2.703125q-3.484375 0 -5.15625 -2.5q-1.671875 -2.5 -1.671875 -7.875zm3.515625 0.234375q0 3.8125 0.734375 5.609375q0.75 1.796875 2.46875 1.796875q1.859375 0 2.640625 -1.625q0.78125 -1.625 0.78125 -5.765625q0 -3.875 -0.75 -5.34375q-0.734375 -1.46875 -2.453125 -1.46875q-3.421875 0 -3.421875 6.796875z" fill-rule="nonzero"/><path fill="#000000" fill-opacity="0.0" d="m128.33858 672.95013l0 -608.7874" fill-rule="evenodd"/><path stroke="#000000" stroke-width="2.0" stroke-linejoin="round" stroke-linecap="butt" d="m128.33858 672.95013l0 -596.7874" fill-rule="evenodd"/><path fill="#000000" stroke="#000000" stroke-width="2.0" stroke-linecap="butt" d="m131.64204 76.16273l-3.3034668 -9.076195l-3.3034592 9.076195z" fill-rule="evenodd"/><path fill="#000000" fill-opacity="0.0" d="m94.120735 648.7139l785.5748 0" fill-rule="evenodd"/><path stroke="#000000" stroke-width="2.0" stroke-linejoin="round" stroke-linecap="butt" d="m94.120735 648.7139l773.5748 0" fill-rule="evenodd"/><path fill="#000000" stroke="#000000" stroke-width="2.0" stroke-linecap="butt" d="m867.69556 652.0174l9.076172 -3.3034668l-9.076172 -3.3034668z" fill-rule="evenodd"/><path fill="#cfe2f3" d="m488.6929 199.00787l0 0c0 -10.236832 8.2986145 -18.53543 18.53543 -18.53543l0 0c4.9158936 0 9.630493 1.9528351 13.106567 5.428894c3.4760742 3.4760742 5.428894 8.190628 5.428894 13.106537l0 0c0 10.236832 -8.298584 18.53543 -18.535461 18.53543l0 0c-10.236816 0 -18.53543 -8.298599 -18.53543 -18.53543z" fill-rule="evenodd"/><path stroke="#000000" stroke-width="1.0" stroke-linejoin="round" stroke-linecap="butt" d="m488.6929 199.00787l0 0c0 -10.236832 8.2986145 -18.53543 18.53543 -18.53543l0 0c4.9158936 0 9.630493 1.9528351 13.106567 5.428894c3.4760742 3.4760742 5.428894 8.190628 5.428894 13.106537l0 0c0 10.236832 -8.298584 18.53543 -18.535461 18.53543l0 0c-10.236816 0 -18.53543 -8.298599 -18.53543 -18.53543z" fill-rule="evenodd"/><path fill="#000000" fill-opacity="0.0" d="m563.9055 199.00787l62.740173 0" fill-rule="evenodd"/><path stroke="#000000" stroke-width="3.0" stroke-linejoin="round" stroke-linecap="butt" d="m563.9055 199.00787l44.740173 0" fill-rule="evenodd"/><path fill="#000000" stroke="#000000" stroke-width="3.0" stroke-linecap="butt" d="m608.6457 203.96307l13.614258 -4.9552l-13.614258 -4.9552z" fill-rule="evenodd"/><path fill="#000000" fill-opacity="0.0" d="m479.7641 95.00873l51.68506 0l0 76.12598l-51.68506 0z" fill-rule="evenodd"/><path fill="#000000" d="m507.4516 165.44873l-14.0 0l0 -45.75q9.25 -0.4375 12.96875 -0.4375q7.125 0 11.140625 3.046875q4.015625 3.046875 4.015625 8.703125q0 5.4375 -5.75 8.59375q8.53125 2.96875 8.53125 12.25q0 6.25 -4.71875 9.921875q-4.71875 3.671875 -12.1875 3.671875zm-5.875 -39.25l0 10.96875q1.875 0.125 3.9375 0.125q7.9375 0 7.9375 -5.96875q0 -5.28125 -7.21875 -5.28125q-1.90625 0 -4.65625 0.15625zm0 17.3125l0 15.125q2.46875 0.21875 4.0 0.21875q5.4375 0 7.890625 -1.84375q2.453125 -1.84375 2.453125 -6.125q0 -3.90625 -2.28125 -5.6875q-2.28125 -1.78125 -7.96875 -1.78125q-1.1875 0 -4.09375 0.09375z" fill-rule="nonzero"/><path fill="#000000" fill-opacity="0.0" d="m567.0945 95.0105l51.68506 0l0 76.12599l-51.68506 0z" fill-rule="evenodd"/><path fill="#000000" d="m588.907 126.888l0 10.71875l15.125 0l0 6.90625l-15.125 0l0 13.71875l20.75 0l0 7.21875l-28.875 0l0 -45.78125l29.21875 0l0 7.21875l-21.09375 0z" fill-rule="nonzero"/><path fill="#000000" d="m503.48096 199.00821l0 0c0 -2.0699768 1.6780396 -3.7480316 3.7480469 -3.7480316l0 0c0.99401855 0 1.9473572 0.3948822 2.650238 1.0977783c0.7029114 0.70288086 1.0977783 1.6562195 1.0977783 2.6502533l0 0c0 2.0699768 -1.6780396 3.7480316 -3.7480164 3.7480316l0 0c-2.0700073 0 -3.7480469 -1.6780548 -3.7480469 -3.7480316z" fill-rule="evenodd"/><path stroke="#000000" stroke-width="1.0" stroke-linejoin="round" stroke-linecap="butt" d="m503.48096 199.00821l0 0c0 -2.0699768 1.6780396 -3.7480316 3.7480469 -3.7480316l0 0c0.99401855 0 1.9473572 0.3948822 2.650238 1.0977783c0.7029114 0.70288086 1.0977783 1.6562195 1.0977783 2.6502533l0 0c0 2.0699768 -1.6780396 3.7480316 -3.7480164 3.7480316l0 0c-2.0700073 0 -3.7480469 -1.6780548 -3.7480469 -3.7480316z" fill-rule="evenodd"/><path fill="#000000" fill-opacity="0.0" d="m76.65387 64.16358l51.685043 0l0 76.125984l-51.685043 0z" fill-rule="evenodd"/><path fill="#000000" d="m97.544495 114.92295q-0.78125 2.09375 -3.34375 3.46875q-2.5625 1.375 -5.984375 1.375l0 -4.3125q5.640625 0 5.640625 -2.828125q0 -1.890625 -1.5625 -5.75l-6.546875 -16.234375l5.0625 0l5.703125 14.453125l5.140625 -14.453125l5.0625 0l-9.171875 24.28125z" fill-rule="nonzero"/><path fill="#000000" fill-opacity="0.0" d="m827.45703 644.75415l51.68506 0l0 76.12598l-51.68506 0z" fill-rule="evenodd"/><path fill="#000000" d="m852.4883 692.1541l-4.921875 -7.203125l-5.03125 7.203125l-5.6875 0l8.25 -10.640625l-7.6875 -10.28125l5.65625 0l4.625 6.640625l4.640625 -6.640625l5.5 0l-7.65625 10.046875l8.28125 10.875l-5.96875 0z" fill-rule="nonzero"/><path fill="#000000" fill-opacity="0.0" d="m395.62268 657.09186l0 -16.75592" fill-rule="evenodd"/><path stroke="#000000" stroke-width="2.0" stroke-linejoin="round" stroke-linecap="butt" d="m395.62268 657.09186l0 -16.75592" fill-rule="evenodd"/><path fill="#000000" fill-opacity="0.0" d="m119.959946 411.95013l16.755905 0" fill-rule="evenodd"/><path stroke="#000000" stroke-width="2.0" stroke-linejoin="round" stroke-linecap="butt" d="m119.959946 411.95013l16.755905 0" fill-rule="evenodd"/><path fill="#000000" fill-opacity="0.0" d="m76.65387 381.0166l51.685043 0l0 76.12598l-51.685043 0z" fill-rule="evenodd"/><path fill="#000000" d="m96.763245 428.4166l0 -20.625l-5.8125 3.5l0 -4.890625q5.609375 -2.71875 8.859375 -6.71875l2.03125 0l0 28.734375l-5.078125 0z" fill-rule="nonzero"/><path fill="#000000" fill-opacity="0.0" d="m373.0021 648.7148l51.685028 0l0 76.12598l-51.685028 0z" fill-rule="evenodd"/><path fill="#000000" d="m393.11148 696.11475l0 -20.625l-5.8125 3.5l0 -4.890625q5.609375 -2.71875 8.859375 -6.71875l2.03125 0l0 28.734375l-5.078125 0z" fill-rule="nonzero"/></g></svg>